<svg width="257" height="71" viewBox="0 0 257 71" fill="none" xmlns="http://www.w3.org/2000/svg">
<path d="M35.2299 19.67L36.5499 19.34V5.15H34.0199C34.0199 6.04467 33.7779 6.90267 33.2939 7.724C33.0885 8.06133 32.8539 8.34 32.5899 8.56H31.9299V4.6H44.7999V8.56H44.1399C43.8612 8.34 43.6192 8.06133 43.4139 7.724C42.9446 6.932 42.7099 6.074 42.7099 5.15H40.1799V19.34L41.4999 19.67V20H35.2299V19.67ZM49.6347 19.67L50.9547 19.34V14.28L46.4447 5.26L45.3447 4.93V4.6H48.0947C48.8574 4.6 49.4661 4.76133 49.9207 5.084C50.3901 5.40667 50.7714 5.86867 51.0647 6.47L54.3207 12.96L57.6647 5.59L56.0147 4.93V4.6H60.1947V4.93L58.4347 5.59L54.5847 14.06V19.34L55.9047 19.67V20H49.6347V19.67ZM61.0756 19.67L62.3956 19.34V5.26L61.0756 4.93V4.6H67.2356C69.6703 4.6 71.4156 5.00333 72.4716 5.81C73.5276 6.602 74.0556 7.77533 74.0556 9.33C74.0556 10.8847 73.5276 12.0653 72.4716 12.872C71.4156 13.664 69.6703 14.06 67.2356 14.06H66.0256V19.34L67.3456 19.67V20H61.0756V19.67ZM67.2356 13.51C68.1596 13.51 68.9003 13.158 69.4576 12.454C70.0296 11.75 70.3156 10.7087 70.3156 9.33C70.3156 7.966 70.0296 6.932 69.4576 6.228C68.9003 5.50933 68.1596 5.15 67.2356 5.15H66.0256V13.51H67.2356ZM75.9213 19.67L77.2413 19.34V5.26L75.9213 4.93V4.6H87.6913V8.56H87.0313C86.7526 8.34 86.5106 8.06133 86.3053 7.724C85.836 6.932 85.6013 6.074 85.6013 5.15H80.8713V12.08H83.4013C83.504 11.5227 83.6946 11.002 83.9733 10.518C84.0906 10.298 84.23 10.0853 84.3913 9.88H85.0513V14.83H84.3913C84.23 14.6247 84.0906 14.412 83.9733 14.192C83.6946 13.708 83.504 13.1873 83.4013 12.63H80.8713V19.45H86.0413C86.0413 18.526 86.276 17.668 86.7453 16.876C86.9506 16.5387 87.1926 16.26 87.4713 16.04H88.1313V20H75.9213V19.67ZM95.491 20.33C94.4496 20.33 93.4743 20.0953 92.565 19.626C92.1543 19.4207 91.8096 19.1787 91.531 18.9C91.3256 19.2373 91.069 19.538 90.761 19.802C90.497 19.9927 90.3503 20.0953 90.321 20.11H89.771V15.93H90.651C90.871 16.6487 91.179 17.294 91.575 17.866C92.4696 19.142 93.6283 19.78 95.051 19.78C95.887 19.78 96.5543 19.5307 97.053 19.032C97.5516 18.5333 97.801 17.866 97.801 17.03C97.801 16.546 97.6543 16.1133 97.361 15.732C97.0823 15.3507 96.7303 15.0133 96.305 14.72C95.8796 14.4267 95.2856 14.06 94.523 13.62C93.555 13.0773 92.7703 12.586 92.169 12.146C91.5676 11.706 91.0543 11.156 90.629 10.496C90.2036 9.82133 89.991 9.02933 89.991 8.12C89.991 7.40133 90.189 6.756 90.585 6.184C90.9956 5.59733 91.6043 5.13533 92.411 4.798C93.2176 4.446 94.2076 4.27 95.381 4.27C96.2316 4.27 97.0823 4.512 97.933 4.996C98.2556 5.172 98.5783 5.40667 98.901 5.7C99.1503 5.31867 99.407 5.018 99.671 4.798C99.935 4.60733 100.082 4.50467 100.111 4.49H100.661V8.67H99.781C99.5903 7.966 99.3043 7.328 98.923 6.756C98.571 6.19867 98.131 5.73667 97.603 5.37C97.0896 5.00333 96.4956 4.82 95.821 4.82C95.249 4.82 94.7576 5.04733 94.347 5.502C93.9363 5.95667 93.731 6.536 93.731 7.24C93.731 7.78267 93.885 8.274 94.193 8.714C94.5156 9.13933 94.9043 9.51333 95.359 9.836C95.8283 10.1587 96.459 10.5473 97.251 11.002C98.175 11.53 98.923 11.9993 99.495 12.41C100.067 12.8207 100.551 13.334 100.947 13.95C101.343 14.5513 101.541 15.248 101.541 16.04C101.541 16.832 101.314 17.558 100.859 18.218C100.404 18.8633 99.7223 19.3767 98.813 19.758C97.9036 20.1393 96.7963 20.33 95.491 20.33ZM116.391 20.33C114.954 20.33 113.692 20.022 112.607 19.406C111.536 18.7753 110.708 17.8587 110.121 16.656C109.534 15.4533 109.241 14.0013 109.241 12.3C109.241 10.5987 109.534 9.14667 110.121 7.944C110.708 6.74133 111.536 5.832 112.607 5.216C113.692 4.58533 114.954 4.27 116.391 4.27C117.828 4.27 119.082 4.58533 120.153 5.216C121.238 5.832 122.074 6.74133 122.661 7.944C123.248 9.14667 123.541 10.5987 123.541 12.3C123.541 14.0013 123.248 15.4533 122.661 16.656C122.074 17.8587 121.238 18.7753 120.153 19.406C119.082 20.022 117.828 20.33 116.391 20.33ZM116.391 19.89C116.963 19.89 117.491 19.648 117.975 19.164C118.474 18.68 118.884 17.8733 119.207 16.744C119.53 15.6147 119.691 14.1333 119.691 12.3C119.691 10.4667 119.53 8.98533 119.207 7.856C118.884 6.72667 118.474 5.92 117.975 5.436C117.491 4.952 116.963 4.71 116.391 4.71C115.819 4.71 115.284 4.952 114.785 5.436C114.301 5.92 113.898 6.72667 113.575 7.856C113.252 8.98533 113.091 10.4667 113.091 12.3C113.091 14.1333 113.252 15.6147 113.575 16.744C113.898 17.8733 114.301 18.68 114.785 19.164C115.284 19.648 115.819 19.89 116.391 19.89ZM125.636 19.67L126.956 19.34V5.26L125.636 4.93V4.6H137.406V8.56H136.746C136.467 8.34 136.225 8.06133 136.02 7.724C135.551 6.932 135.316 6.074 135.316 5.15H130.586V12.08H133.116C133.219 11.5227 133.409 11.002 133.688 10.518C133.805 10.298 133.945 10.0853 134.106 9.88H134.766V14.83H134.106C133.945 14.6247 133.805 14.412 133.688 14.192C133.409 13.708 133.219 13.1873 133.116 12.63H130.586V19.34L131.906 19.67V20H125.636V19.67ZM145.23 19.67L146.55 19.34V5.26L145.23 4.93V4.6H151.06C153.553 4.6 155.35 4.98133 156.45 5.744C157.55 6.492 158.1 7.54067 158.1 8.89C158.1 9.79933 157.858 10.54 157.374 11.112C156.89 11.6693 156.267 12.0873 155.504 12.366C154.697 12.674 153.839 12.8353 152.93 12.85V12.96C153.473 12.9893 153.949 13.07 154.36 13.202C155.387 13.5247 156.083 14.104 156.45 14.94L158.43 19.34L159.53 19.67V20H156.45C155.247 20 154.367 19.3767 153.81 18.13L151.61 13.18H150.18V19.34L151.72 19.67V20H145.23V19.67ZM151.06 12.63C152.087 12.63 152.893 12.3073 153.48 11.662C154.067 11.0167 154.36 10.0927 154.36 8.89C154.36 7.68733 154.067 6.76333 153.48 6.118C152.893 5.47267 152.087 5.15 151.06 5.15H150.18V12.63H151.06ZM160.634 19.67L161.954 19.34V5.26L160.634 4.93V4.6H172.404V8.56H171.744C171.466 8.34 171.224 8.06133 171.018 7.724C170.549 6.932 170.314 6.074 170.314 5.15H165.584V12.08H168.114C168.217 11.5227 168.408 11.002 168.686 10.518C168.804 10.298 168.943 10.0853 169.104 9.88H169.764V14.83H169.104C168.943 14.6247 168.804 14.412 168.686 14.192C168.408 13.708 168.217 13.1873 168.114 12.63H165.584V19.45H170.754C170.754 18.526 170.989 17.668 171.458 16.876C171.664 16.5387 171.906 16.26 172.184 16.04H172.844V20H160.634V19.67ZM174.814 19.67L176.134 19.34V5.26L174.814 4.93V4.6H180.974C183.409 4.6 185.154 5.00333 186.21 5.81C187.266 6.602 187.794 7.77533 187.794 9.33C187.794 10.8847 187.266 12.0653 186.21 12.872C185.154 13.664 183.409 14.06 180.974 14.06H179.764V19.34L181.084 19.67V20H174.814V19.67ZM180.974 13.51C181.898 13.51 182.639 13.158 183.196 12.454C183.768 11.75 184.054 10.7087 184.054 9.33C184.054 7.966 183.768 6.932 183.196 6.228C182.639 5.50933 181.898 5.15 180.974 5.15H179.764V13.51H180.974ZM186.573 19.67L188.333 19.01L194.383 4.38H195.043L201.313 19.34L202.413 19.67V20H199.773C199.01 20 198.387 19.8313 197.903 19.494C197.419 19.142 197.059 18.6873 196.825 18.13L195.703 15.49H190.445L188.993 19.01L190.643 19.67V20H186.573V19.67ZM190.665 14.94H195.483L193.063 9.154L190.665 14.94ZM203.066 20V19.67L204.386 19.34V5.26L203.066 4.93V4.6H209.336V4.93L208.016 5.26V19.34L209.336 19.67V20H203.066ZM211.316 19.67L212.636 19.34V5.26L211.316 4.93V4.6H217.146C219.639 4.6 221.436 4.98133 222.536 5.744C223.636 6.492 224.186 7.54067 224.186 8.89C224.186 9.79933 223.944 10.54 223.46 11.112C222.976 11.6693 222.352 12.0873 221.59 12.366C220.783 12.674 219.925 12.8353 219.016 12.85V12.96C219.558 12.9893 220.035 13.07 220.446 13.202C221.472 13.5247 222.169 14.104 222.536 14.94L224.516 19.34L225.616 19.67V20H222.536C221.333 20 220.453 19.3767 219.896 18.13L217.696 13.18H216.266V19.34L217.806 19.67V20H211.316V19.67ZM217.146 12.63C218.172 12.63 218.979 12.3073 219.566 11.662C220.152 11.0167 220.446 10.0927 220.446 8.89C220.446 7.68733 220.152 6.76333 219.566 6.118C218.979 5.47267 218.172 5.15 217.146 5.15H216.266V12.63H217.146Z" fill="#181818"/>
<rect x="73.0006" y="56" width="32" height="1.54334" rx="0.771672" fill="#E3B873"/>
<rect x="155.001" y="56" width="32" height="1.54334" rx="0.771672" fill="#E3B873"/>
<g clip-path="url(#clip0_5_58)">
<path d="M140.406 64.1437C139.824 63.7344 139.153 63.5146 138.475 63.4787C135.92 61.8056 134.246 60.5498 133.269 59.5726L130.268 56.571L132.089 54.532C132.434 54.7269 132.805 54.8553 133.176 54.9083C133.456 54.9549 133.642 54.9549 133.829 54.9549C134.202 54.9549 134.295 54.9549 134.668 55.2814C134.482 55.4213 134.389 55.6545 134.389 55.8877C134.389 56.1209 134.482 56.4008 134.668 56.5874L136.301 58.2199C136.534 58.4998 136.907 58.6397 137.281 58.6397C137.654 58.6397 138.027 58.4998 138.26 58.1733L141.572 54.8616C141.852 54.6283 141.991 54.2552 141.991 53.8821C141.991 53.5089 141.852 53.1824 141.572 52.9026L139.939 51.27C139.753 51.0835 139.519 50.9902 139.286 50.9902C139.053 50.9902 138.82 51.1301 138.633 51.27C138.26 50.9435 138.26 50.8502 138.26 50.4771C138.26 50.2905 138.26 50.0573 138.167 49.7774C138.073 49.1244 137.747 48.4714 137.234 47.9583L135.555 46.2792C134.575 45.2997 134.109 44.8333 132.849 44.2735C130.144 43.0142 127.392 43.2474 123.381 45.0665C123.147 45.1598 123.054 45.3464 123.101 45.5796C123.147 45.8128 123.334 45.9528 123.567 45.9528H124.174C126.226 45.9528 127.299 45.9528 129.164 47.8185C129.981 48.6354 130.005 49.8881 129.273 50.8097C129.174 50.8246 129.099 50.8688 129.025 50.9436L126.953 53.2561L125.386 51.6899C123.665 49.9684 122.454 48.3397 121.522 46.5261C121.473 45.6085 121.105 44.7499 120.442 44.087C119.649 43.2941 118.53 42.921 117.41 43.0143C117.271 43.0609 117.131 43.1542 117.084 43.2475C116.991 43.3875 116.991 43.574 117.084 43.7139L118.39 46.0461C118.11 46.6525 117.457 47.0256 116.804 46.979L115.451 44.7401C115.405 44.6001 115.218 44.5068 115.078 44.5068C114.938 44.4602 114.798 44.5535 114.705 44.6934C113.586 46.3725 114.005 48.6114 115.685 49.7775C116.263 50.1907 116.915 50.4205 117.575 50.4676C117.582 50.4707 117.589 50.4746 117.597 50.4771C119.416 51.41 121.049 52.6227 122.774 54.3485L124.48 56.0156L114.565 67.0822C114.192 67.4554 114.005 67.9684 114.005 68.4815C114.005 68.9946 114.192 69.461 114.565 69.8342L115.218 70.4872C115.591 70.8137 116.058 71.0003 116.524 71.0003C116.991 71.0003 117.504 70.8137 117.877 70.4406L127.781 59.3548L130.657 62.2313C131.636 63.2099 132.894 64.9335 134.57 67.4483C134.631 68.346 134.998 69.1842 135.648 69.8342C136.348 70.5338 137.281 70.907 138.26 70.907C138.4 70.907 138.54 70.907 138.633 70.907C138.773 70.907 138.913 70.8137 139.006 70.6738C139.1 70.5338 139.1 70.3473 139.006 70.2073L137.654 67.9218C137.98 67.3155 138.587 66.9423 139.286 66.989L140.592 69.2278C140.639 69.3678 140.825 69.4611 140.965 69.4611C141.152 69.4144 141.292 69.3678 141.385 69.2278C142.505 67.5486 142.038 65.3097 140.406 64.1437ZM129.771 47.0723C128.278 45.6263 127.159 45.1599 125.9 45.0199C128.558 44.1804 130.517 44.227 132.476 45.1132C133.596 45.5796 133.969 45.9528 134.948 46.9323L136.627 48.6115C137.001 48.9846 137.234 49.4511 137.281 49.9175C137.327 50.1507 137.327 50.3373 137.327 50.4772C137.327 50.9903 137.374 51.3634 137.933 51.9231C138.12 52.1097 138.4 52.203 138.633 52.203C138.913 52.203 139.146 52.1097 139.286 51.9231L140.919 53.5556C141.012 53.6489 141.059 53.7422 141.059 53.8821C141.059 54.0221 141.012 54.1154 140.919 54.2086L137.607 57.5203C137.42 57.7069 137.141 57.7069 136.954 57.5203L135.321 55.8878C135.508 55.7478 135.601 55.5146 135.555 55.2347C135.555 55.0015 135.461 54.7217 135.275 54.5351C134.715 53.9754 134.342 53.9288 133.829 53.9288C133.689 53.9288 133.502 53.9288 133.269 53.8821C132.756 53.8355 132.336 53.6023 131.963 53.2291L129.958 51.2235C130.984 49.9642 130.89 48.1917 129.771 47.0723ZM115.125 45.9528L116.104 47.632C116.198 47.7719 116.338 47.8652 116.478 47.8652H116.711C117.784 47.9118 118.763 47.3521 119.23 46.4193L119.323 46.186C119.416 46.0461 119.416 45.9062 119.323 45.7663L118.297 43.9938C118.856 44.0871 119.37 44.367 119.789 44.7868C120.27 45.3077 120.578 45.9666 120.596 46.6743C120.587 46.7102 120.582 46.7489 120.582 46.7924C120.582 47.0085 120.556 47.2192 120.508 47.4223C120.332 48.0977 119.91 48.6865 119.323 49.078C118.39 49.6843 117.131 49.6843 116.198 49.0314C115.218 48.3316 114.798 47.0723 115.125 45.9528ZM123.427 53.6956C122.028 52.2497 120.629 51.1302 119.136 50.244C119.369 50.1507 119.649 50.0107 119.882 49.8708C120.582 49.4044 121.049 48.798 121.328 48.0517C122.215 49.5443 123.334 50.9436 124.733 52.3429L126.335 53.945L125.079 55.3473L123.427 53.6956ZM117.224 69.7409C116.851 70.114 116.244 70.1607 115.871 69.7875L115.218 69.1812C115.032 68.9946 114.938 68.7614 114.938 68.5281C114.938 68.2483 115.032 68.015 115.265 67.7819L115.529 67.4863L116.198 68.155C116.291 68.2483 116.384 68.2949 116.524 68.2949C116.664 68.2949 116.757 68.2483 116.851 68.155C117.037 67.9685 117.037 67.6886 116.851 67.502L116.145 66.7967L116.762 66.107L117.504 66.849C117.597 66.9423 117.69 66.9889 117.83 66.9889C117.97 66.9889 118.063 66.9423 118.157 66.849C118.343 66.6624 118.343 66.3826 118.157 66.1959L117.378 65.4174L129.376 51.9944L131.335 53.9534L129.41 56.107C129.355 56.1302 129.306 56.1658 129.258 56.2143L127.392 58.3133C127.339 58.3665 127.301 58.4276 127.278 58.4917L117.224 69.7409ZM128.419 58.6403L129.695 57.2115L132.709 60.2256C133.549 61.1119 134.995 62.2313 137.094 63.6306C136.814 63.7239 136.534 63.8638 136.254 64.0504C135.676 64.4121 135.266 64.9142 134.98 65.4694C134.976 65.4773 134.972 65.4854 134.968 65.4933C134.951 65.5267 134.934 65.5603 134.918 65.5941C134.895 65.6419 134.873 65.6903 134.853 65.7392C134.838 65.7722 134.824 65.8053 134.81 65.8386C134.809 65.8434 134.807 65.8482 134.805 65.853C134.79 65.8895 134.775 65.926 134.762 65.9628C134.497 65.5742 134.242 65.2075 133.997 64.862L134.622 64.237C134.808 64.0504 134.808 63.7706 134.622 63.584C134.435 63.3974 134.155 63.3974 133.969 63.584L133.449 64.1039C133.255 63.8409 133.068 63.5928 132.887 63.3596L133.316 62.9309C133.502 62.7444 133.502 62.4645 133.316 62.2779C133.129 62.0914 132.849 62.0914 132.663 62.2779L132.307 62.634C131.964 62.2208 131.648 61.8692 131.357 61.5783L128.419 58.6403ZM140.919 67.9684L139.939 66.2893C139.846 66.1493 139.706 66.056 139.566 66.056H139.333C138.26 65.9627 137.28 66.5691 136.814 67.5019L136.721 67.7352C136.627 67.8751 136.627 68.015 136.721 68.155L137.747 69.9274C137.187 69.8341 136.674 69.5543 136.254 69.1345C135.782 68.6233 135.477 67.9795 135.449 67.2871C135.457 67.253 135.461 67.2164 135.461 67.1755C135.461 66.5846 135.649 66.0314 135.976 65.5628C136.177 65.2832 136.428 65.0385 136.721 64.8433C137.187 64.5168 137.7 64.3769 138.26 64.3769C138.82 64.3769 139.379 64.5635 139.846 64.89C140.825 65.5896 141.245 66.849 140.919 67.9684Z" fill="#E3B873"/>
</g>
<defs>
<clipPath id="clip0_5_58">
<rect width="28" height="28" fill="white" transform="translate(114 43.0002)"/>
</clipPath>
</defs>
</svg>
